<?xml version="1.0" encoding="us-ascii" standalone="no"?><svg xmlns="http://www.w3.org/2000/svg" xmlns:xlink="http://www.w3.org/1999/xlink" contentStyleType="text/css" height="967px" preserveAspectRatio="none" style="width:1426px;height:967px;background:#FFFFFF;" version="1.1" viewBox="0 0 1426 967" width="1426px" zoomAndPan="magnify"><defs/><g><text fill="#000000" font-family="sans-serif" font-size="14" font-weight="bold" lengthAdjust="spacing" textLength="116" x="648" y="22.9951">Class Diagram</text><!--class GameStart--><g id="elem_GameStart"><rect codeLine="5" fill="#F1F1F1" height="96.8906" id="GameStart" rx="3.5" ry="3.5" style="stroke:#181818;stroke-width:0.5;" width="215" x="217.5" y="502.7969"/><ellipse cx="281.25" cy="518.7969" fill="#ADD1B2" rx="11" ry="11" style="stroke:#181818;stroke-width:1.0;"/><path d="M283.5938,514.4688 C282.6563,514.0313 282.0625,513.8906 281.1875,513.8906 C278.5625,513.8906 276.5625,515.9688 276.5625,518.6875 L276.5625,519.8125 C276.5625,522.3906 278.6719,524.2813 281.5625,524.2813 C282.7813,524.2813 283.9375,523.9844 284.6875,523.4375 C285.2656,523.0313 285.5938,522.5781 285.5938,522.1875 C285.5938,521.7344 285.2031,521.3438 284.7344,521.3438 C284.5156,521.3438 284.3125,521.4219 284.125,521.6094 C283.6719,522.0938 283.6719,522.0938 283.4844,522.1875 C283.0625,522.4531 282.375,522.5781 281.6094,522.5781 C279.5625,522.5781 278.2656,521.4844 278.2656,519.7813 L278.2656,518.6875 C278.2656,516.9063 279.5156,515.5938 281.25,515.5938 C281.8281,515.5938 282.4375,515.75 282.9063,516 C283.3906,516.2813 283.5625,516.5 283.6563,516.9063 C283.7188,517.3125 283.75,517.4375 283.8906,517.5625 C284.0313,517.7031 284.2656,517.8125 284.4844,517.8125 C284.75,517.8125 285.0156,517.6719 285.1875,517.4531 C285.2969,517.2969 285.3281,517.1094 285.3281,516.6875 L285.3281,515.2656 C285.3281,514.8281 285.3125,514.7031 285.2188,514.5469 C285.0625,514.2813 284.7813,514.1406 284.4844,514.1406 C284.1875,514.1406 283.9844,514.2344 283.7656,514.5469 L283.5938,514.4688 Z " fill="#000000"/><text fill="#000000" font-family="sans-serif" font-size="14" lengthAdjust="spacing" textLength="79" x="301.75" y="523.6436">GameStart</text><line style="stroke:#181818;stroke-width:0.5;" x1="218.5" x2="431.5" y1="534.7969" y2="534.7969"/><line style="stroke:#181818;stroke-width:0.5;" x1="218.5" x2="431.5" y1="542.7969" y2="542.7969"/><text fill="#000000" font-family="sans-serif" font-size="14" lengthAdjust="spacing" textLength="172" x="223.5" y="559.792">main(arary[] arguments)</text><text fill="#000000" font-family="sans-serif" font-size="14" lengthAdjust="spacing" textLength="4" x="223.5" y="576.0889">&#160;</text><text fill="#000000" font-family="sans-serif" font-size="14" lengthAdjust="spacing" textLength="203" x="223.5" y="592.3857">initialize(array[] arguments))</text></g><g id="elem_GMN3"><path d="M6,542.2969 L6,560.4297 A3.5,3.5 0 0 0 9.5,563.9297 L178.5,563.9297 A3.5,3.5 0 0 0 182,560.4297 L182,556.7969 L217.237,551.2969 L182,548.7969 L182,548.7969 L172,538.7969 L9.5,538.7969 A3.5,3.5 0 0 0 6,542.2969 " fill="#7FFFD4" style="stroke:#454645;stroke-width:1.5;"/><path d="M172,538.7969 L172,547.0469 A1.75,1.75 0 0 0 173.75,548.7969 L182,548.7969 L172,538.7969 " fill="#7FFFD4" style="stroke:#454645;stroke-width:1.5;"/><text fill="#454645" font-family="sans-serif" font-size="13" lengthAdjust="spacing" textLength="155" x="12" y="555.8638">"main is our entry point"</text></g><!--class UserInterface--><g id="elem_UserInterface"><rect codeLine="14" fill="#F1F1F1" height="357.6406" id="UserInterface" rx="3.5" ry="3.5" style="stroke:#181818;stroke-width:0.5;" width="633" x="8.5" y="44.2969"/><ellipse cx="272.25" cy="60.2969" fill="#ADD1B2" rx="11" ry="11" style="stroke:#181818;stroke-width:1.0;"/><path d="M274.5938,55.9688 C273.6563,55.5313 273.0625,55.3906 272.1875,55.3906 C269.5625,55.3906 267.5625,57.4688 267.5625,60.1875 L267.5625,61.3125 C267.5625,63.8906 269.6719,65.7813 272.5625,65.7813 C273.7813,65.7813 274.9375,65.4844 275.6875,64.9375 C276.2656,64.5313 276.5938,64.0781 276.5938,63.6875 C276.5938,63.2344 276.2031,62.8438 275.7344,62.8438 C275.5156,62.8438 275.3125,62.9219 275.125,63.1094 C274.6719,63.5938 274.6719,63.5938 274.4844,63.6875 C274.0625,63.9531 273.375,64.0781 272.6094,64.0781 C270.5625,64.0781 269.2656,62.9844 269.2656,61.2813 L269.2656,60.1875 C269.2656,58.4063 270.5156,57.0938 272.25,57.0938 C272.8281,57.0938 273.4375,57.25 273.9063,57.5 C274.3906,57.7813 274.5625,58 274.6563,58.4063 C274.7188,58.8125 274.75,58.9375 274.8906,59.0625 C275.0313,59.2031 275.2656,59.3125 275.4844,59.3125 C275.75,59.3125 276.0156,59.1719 276.1875,58.9531 C276.2969,58.7969 276.3281,58.6094 276.3281,58.1875 L276.3281,56.7656 C276.3281,56.3281 276.3125,56.2031 276.2188,56.0469 C276.0625,55.7813 275.7813,55.6406 275.4844,55.6406 C275.1875,55.6406 274.9844,55.7344 274.7656,56.0469 L274.5938,55.9688 Z " fill="#000000"/><text fill="#000000" font-family="sans-serif" font-size="14" lengthAdjust="spacing" textLength="97" x="292.75" y="65.1436">UserInterface</text><line style="stroke:#181818;stroke-width:0.5;" x1="9.5" x2="640.5" y1="76.2969" y2="76.2969"/><text fill="#000000" font-family="sans-serif" font-size="14" lengthAdjust="spacing" textLength="152" x="14.5" y="93.292">private JFrame frame</text><text fill="#000000" font-family="sans-serif" font-size="14" lengthAdjust="spacing" textLength="181" x="14.5" y="109.5889">private JPanel card_panel</text><text fill="#000000" font-family="sans-serif" font-size="14" lengthAdjust="spacing" textLength="191" x="14.5" y="125.8857">private Jpanel menu_panel</text><text fill="#000000" font-family="sans-serif" font-size="14" lengthAdjust="spacing" textLength="4" x="14.5" y="142.1826">&#160;</text><text fill="#000000" font-family="sans-serif" font-size="14" lengthAdjust="spacing" textLength="209" x="14.5" y="158.4795">public ArrayList&lt;Card&gt; cards</text><line style="stroke:#181818;stroke-width:0.5;" x1="9.5" x2="640.5" y1="165.7813" y2="165.7813"/><text fill="#000000" font-family="sans-serif" font-size="14" lengthAdjust="spacing" textLength="85" x="14.5" y="182.7764">setDisplay()</text><text fill="#000000" font-family="sans-serif" font-size="14" lengthAdjust="spacing" textLength="78" x="14.5" y="199.0732">setFrame()</text><text fill="#000000" font-family="sans-serif" font-size="14" lengthAdjust="spacing" textLength="72" x="14.5" y="215.3701">setPanel()</text><text fill="#000000" font-family="sans-serif" font-size="14" lengthAdjust="spacing" textLength="4" x="14.5" y="231.667">&#160;</text><text fill="#000000" font-family="sans-serif" font-size="14" lengthAdjust="spacing" textLength="211" x="14.5" y="247.9639">getRandomSelectedInteger()</text><text fill="#000000" font-family="sans-serif" font-size="14" lengthAdjust="spacing" textLength="4" x="14.5" y="264.2607">&#160;</text><text fill="#000000" font-family="sans-serif" font-size="14" lengthAdjust="spacing" textLength="621" x="14.5" y="280.5576">setGame(GameCommander.commandGameStart(), this.getRandomSelectedInteger())</text><text fill="#000000" font-family="sans-serif" font-size="14" lengthAdjust="spacing" textLength="4" x="14.5" y="296.8545">&#160;</text><text fill="#000000" font-family="sans-serif" font-size="14" lengthAdjust="spacing" textLength="384" x="14.5" y="313.1514">refresh(GameStart.initialize.main(array[] arguments))</text><text fill="#000000" font-family="sans-serif" font-size="14" lengthAdjust="spacing" textLength="4" x="14.5" y="329.4482">&#160;</text><text fill="#000000" font-family="sans-serif" font-size="14" lengthAdjust="spacing" textLength="288" x="14.5" y="345.7451">this.GameCommander.commandCards()</text><text fill="#000000" font-family="sans-serif" font-size="14" lengthAdjust="spacing" textLength="4" x="14.5" y="362.042">&#160;</text><text fill="#000000" font-family="sans-serif" font-size="14" lengthAdjust="spacing" textLength="473" x="14.5" y="378.3389">this.GameCommander.commandCardsToDisplayResult(this.cards)</text><text fill="#000000" font-family="sans-serif" font-size="14" lengthAdjust="spacing" textLength="510" x="14.5" y="394.6357">this.GameCommander.commandMessengerToDisplayResult(this.cards)</text></g><!--class GameComponent--><g id="elem_GameComponent"><rect codeLine="97" fill="#F1F1F1" height="178.375" id="GameComponent" rx="3.5" ry="3.5" style="stroke:#181818;stroke-width:0.5;" width="407" x="514.5" y="462.2969"/><ellipse cx="650.75" cy="478.2969" fill="#A9DCDF" rx="11" ry="11" style="stroke:#181818;stroke-width:1.0;"/><path d="M652.8281,480.1094 L653.2188,481.0938 L652.8281,481.0938 C652.375,481.0938 652.2656,481.1094 652.1094,481.2188 C651.8594,481.375 651.7031,481.6563 651.7031,481.9531 C651.7031,482.2188 651.8438,482.4688 652.0625,482.625 C652.2031,482.75 652.4063,482.7969 652.8281,482.7969 L655.1875,482.7969 C655.5469,482.7969 655.7656,482.7656 655.9063,482.6719 C656.1563,482.5313 656.3125,482.2344 656.3125,481.9531 C656.3125,481.6719 656.1719,481.4219 655.9531,481.2656 C655.7813,481.125 655.625,481.0938 655.1563,481.0938 L651.7656,472.8906 L648.0938,472.8906 C647.6406,472.8906 647.5156,472.9063 647.3594,473 C647.1094,473.1719 646.9531,473.4531 646.9531,473.7344 C646.9531,474.0156 647.0938,474.2656 647.3125,474.4375 C647.4844,474.5469 647.6563,474.5781 648.0938,474.5781 L649.1719,474.5781 L646.5313,481.0938 C646.1094,481.0938 645.9531,481.1094 645.7969,481.2188 C645.5469,481.375 645.3906,481.6563 645.3906,481.9531 C645.3906,482.5156 645.7656,482.7969 646.5156,482.7969 L648.7813,482.7969 C649.1406,482.7969 649.3594,482.7656 649.4844,482.6719 C649.75,482.5313 649.8906,482.2344 649.8906,481.9531 C649.8906,481.6719 649.7656,481.4219 649.5469,481.25 C649.375,481.125 649.2344,481.0938 648.7813,481.0938 L648.3906,481.0938 L648.7813,480.1094 L652.8281,480.1094 Z M652.125,478.4063 L649.4531,478.4063 L650.7969,475.1406 L652.125,478.4063 Z " fill="#000000"/><text fill="#000000" font-family="sans-serif" font-size="14" font-style="italic" lengthAdjust="spacing" textLength="126" x="671.25" y="483.1436">GameComponent</text><line style="stroke:#181818;stroke-width:0.5;" x1="515.5" x2="920.5" y1="494.2969" y2="494.2969"/><text fill="#000000" font-family="sans-serif" font-size="14" lengthAdjust="spacing" textLength="216" x="520.5" y="511.292">GameMessenger game_Status</text><line style="stroke:#181818;stroke-width:0.5;" x1="515.5" x2="920.5" y1="518.5938" y2="518.5938"/><text fill="#000000" font-family="sans-serif" font-size="14" lengthAdjust="spacing" textLength="395" x="520.5" y="535.5889">GameComponent(GameCommander, GameMessenger)</text><text fill="#000000" font-family="sans-serif" font-size="14" lengthAdjust="spacing" textLength="4" x="520.5" y="551.8857">&#160;</text><text fill="#000000" font-family="sans-serif" font-size="14" lengthAdjust="spacing" textLength="60" x="520.5" y="568.1826">display()</text><text fill="#000000" font-family="sans-serif" font-size="14" lengthAdjust="spacing" textLength="62" x="520.5" y="584.4795">refresh()</text><text fill="#000000" font-family="sans-serif" font-size="14" lengthAdjust="spacing" textLength="62" x="520.5" y="600.7764">control()</text><text fill="#000000" font-family="sans-serif" font-size="14" lengthAdjust="spacing" textLength="4" x="520.5" y="617.0732">&#160;</text><text fill="#000000" font-family="sans-serif" font-size="14" lengthAdjust="spacing" textLength="172" x="520.5" y="633.3701">commandHandleEvent()</text></g><!--class Card--><g id="elem_Card"><rect codeLine="43" fill="#F1F1F1" height="292.4531" id="Card" rx="3.5" ry="3.5" style="stroke:#181818;stroke-width:0.5;" width="742" x="677" y="77.2969"/><ellipse cx="1027.25" cy="93.2969" fill="#ADD1B2" rx="11" ry="11" style="stroke:#181818;stroke-width:1.0;"/><path d="M1029.5938,88.9688 C1028.6563,88.5313 1028.0625,88.3906 1027.1875,88.3906 C1024.5625,88.3906 1022.5625,90.4688 1022.5625,93.1875 L1022.5625,94.3125 C1022.5625,96.8906 1024.6719,98.7813 1027.5625,98.7813 C1028.7813,98.7813 1029.9375,98.4844 1030.6875,97.9375 C1031.2656,97.5313 1031.5938,97.0781 1031.5938,96.6875 C1031.5938,96.2344 1031.2031,95.8438 1030.7344,95.8438 C1030.5156,95.8438 1030.3125,95.9219 1030.125,96.1094 C1029.6719,96.5938 1029.6719,96.5938 1029.4844,96.6875 C1029.0625,96.9531 1028.375,97.0781 1027.6094,97.0781 C1025.5625,97.0781 1024.2656,95.9844 1024.2656,94.2813 L1024.2656,93.1875 C1024.2656,91.4063 1025.5156,90.0938 1027.25,90.0938 C1027.8281,90.0938 1028.4375,90.25 1028.9063,90.5 C1029.3906,90.7813 1029.5625,91 1029.6563,91.4063 C1029.7188,91.8125 1029.75,91.9375 1029.8906,92.0625 C1030.0313,92.2031 1030.2656,92.3125 1030.4844,92.3125 C1030.75,92.3125 1031.0156,92.1719 1031.1875,91.9531 C1031.2969,91.7969 1031.3281,91.6094 1031.3281,91.1875 L1031.3281,89.7656 C1031.3281,89.3281 1031.3125,89.2031 1031.2188,89.0469 C1031.0625,88.7813 1030.7813,88.6406 1030.4844,88.6406 C1030.1875,88.6406 1029.9844,88.7344 1029.7656,89.0469 L1029.5938,88.9688 Z " fill="#000000"/><text fill="#000000" font-family="sans-serif" font-size="14" lengthAdjust="spacing" textLength="33" x="1047.75" y="98.1436">Card</text><line style="stroke:#181818;stroke-width:0.5;" x1="678" x2="1418" y1="109.2969" y2="109.2969"/><text fill="#000000" font-family="sans-serif" font-size="14" lengthAdjust="spacing" textLength="139" x="683" y="126.292">public JButton Card</text><text fill="#000000" font-family="sans-serif" font-size="14" lengthAdjust="spacing" textLength="250" x="683" y="142.5889">private background_image_default</text><text fill="#000000" font-family="sans-serif" font-size="14" lengthAdjust="spacing" textLength="228" x="683" y="158.8857">private background_image_won</text><text fill="#000000" font-family="sans-serif" font-size="14" lengthAdjust="spacing" textLength="226" x="683" y="175.1826">private background_image_lost</text><text fill="#000000" font-family="sans-serif" font-size="14" lengthAdjust="spacing" textLength="4" x="683" y="191.4795">&#160;</text><text fill="#000000" font-family="sans-serif" font-size="14" lengthAdjust="spacing" textLength="176" x="683" y="207.7764">public Boolean is_winner</text><text fill="#000000" font-family="sans-serif" font-size="14" lengthAdjust="spacing" textLength="4" x="683" y="224.0732">&#160;</text><text fill="#000000" font-family="sans-serif" font-size="14" lengthAdjust="spacing" textLength="4" x="683" y="240.3701">&#160;</text><text fill="#000000" font-family="sans-serif" font-size="14" lengthAdjust="spacing" textLength="4" x="683" y="256.667">&#160;</text><text fill="#000000" font-family="sans-serif" font-size="14" lengthAdjust="spacing" textLength="74" x="683" y="272.9639">@override</text><line style="stroke:#181818;stroke-width:0.5;" x1="678" x2="1418" y1="280.2656" y2="280.2656"/><text fill="#000000" font-family="sans-serif" font-size="14" lengthAdjust="spacing" textLength="118" x="683" y="297.2607">Card(int card_id)</text><text fill="#000000" font-family="sans-serif" font-size="14" lengthAdjust="spacing" textLength="162" x="683" y="313.5576">setBackgroundImage()</text><text fill="#000000" font-family="sans-serif" font-size="14" lengthAdjust="spacing" textLength="4" x="683" y="329.8545">&#160;</text><text fill="#000000" font-family="sans-serif" font-size="14" lengthAdjust="spacing" textLength="220" x="683" y="346.1514">refresh(String game_message)</text><text fill="#000000" font-family="sans-serif" font-size="14" lengthAdjust="spacing" textLength="730" x="683" y="362.4482">onPress(this.GameCommander.commandHandleEvent(this.GameMessenger.broadcastEvent(this.id)))</text></g><!--class JButton--><g id="elem_JButton"><rect fill="#F1F1F1" height="48" id="JButton" rx="3.5" ry="3.5" style="stroke:#181818;stroke-width:0.5;" width="86" x="1005" y="527.2969"/><ellipse cx="1020" cy="543.2969" fill="#ADD1B2" rx="11" ry="11" style="stroke:#181818;stroke-width:1.0;"/><path d="M1022.3438,538.9688 C1021.4063,538.5313 1020.8125,538.3906 1019.9375,538.3906 C1017.3125,538.3906 1015.3125,540.4688 1015.3125,543.1875 L1015.3125,544.3125 C1015.3125,546.8906 1017.4219,548.7813 1020.3125,548.7813 C1021.5313,548.7813 1022.6875,548.4844 1023.4375,547.9375 C1024.0156,547.5313 1024.3438,547.0781 1024.3438,546.6875 C1024.3438,546.2344 1023.9531,545.8438 1023.4844,545.8438 C1023.2656,545.8438 1023.0625,545.9219 1022.875,546.1094 C1022.4219,546.5938 1022.4219,546.5938 1022.2344,546.6875 C1021.8125,546.9531 1021.125,547.0781 1020.3594,547.0781 C1018.3125,547.0781 1017.0156,545.9844 1017.0156,544.2813 L1017.0156,543.1875 C1017.0156,541.4063 1018.2656,540.0938 1020,540.0938 C1020.5781,540.0938 1021.1875,540.25 1021.6563,540.5 C1022.1406,540.7813 1022.3125,541 1022.4063,541.4063 C1022.4688,541.8125 1022.5,541.9375 1022.6406,542.0625 C1022.7813,542.2031 1023.0156,542.3125 1023.2344,542.3125 C1023.5,542.3125 1023.7656,542.1719 1023.9375,541.9531 C1024.0469,541.7969 1024.0781,541.6094 1024.0781,541.1875 L1024.0781,539.7656 C1024.0781,539.3281 1024.0625,539.2031 1023.9688,539.0469 C1023.8125,538.7813 1023.5313,538.6406 1023.2344,538.6406 C1022.9375,538.6406 1022.7344,538.7344 1022.5156,539.0469 L1022.3438,538.9688 Z " fill="#000000"/><text fill="#000000" font-family="sans-serif" font-size="14" lengthAdjust="spacing" textLength="54" x="1034" y="548.1436">JButton</text><line style="stroke:#181818;stroke-width:0.5;" x1="1006" x2="1090" y1="559.2969" y2="559.2969"/><line style="stroke:#181818;stroke-width:0.5;" x1="1006" x2="1090" y1="567.2969" y2="567.2969"/></g><!--class GameCommander--><g id="elem_GameCommander"><rect codeLine="61" fill="#F1F1F1" height="259.8594" id="GameCommander" rx="3.5" ry="3.5" style="stroke:#181818;stroke-width:0.5;" width="491" x="243.5" y="700.2969"/><ellipse cx="419.75" cy="716.2969" fill="#ADD1B2" rx="11" ry="11" style="stroke:#181818;stroke-width:1.0;"/><path d="M422.0938,711.9688 C421.1563,711.5313 420.5625,711.3906 419.6875,711.3906 C417.0625,711.3906 415.0625,713.4688 415.0625,716.1875 L415.0625,717.3125 C415.0625,719.8906 417.1719,721.7813 420.0625,721.7813 C421.2813,721.7813 422.4375,721.4844 423.1875,720.9375 C423.7656,720.5313 424.0938,720.0781 424.0938,719.6875 C424.0938,719.2344 423.7031,718.8438 423.2344,718.8438 C423.0156,718.8438 422.8125,718.9219 422.625,719.1094 C422.1719,719.5938 422.1719,719.5938 421.9844,719.6875 C421.5625,719.9531 420.875,720.0781 420.1094,720.0781 C418.0625,720.0781 416.7656,718.9844 416.7656,717.2813 L416.7656,716.1875 C416.7656,714.4063 418.0156,713.0938 419.75,713.0938 C420.3281,713.0938 420.9375,713.25 421.4063,713.5 C421.8906,713.7813 422.0625,714 422.1563,714.4063 C422.2188,714.8125 422.25,714.9375 422.3906,715.0625 C422.5313,715.2031 422.7656,715.3125 422.9844,715.3125 C423.25,715.3125 423.5156,715.1719 423.6875,714.9531 C423.7969,714.7969 423.8281,714.6094 423.8281,714.1875 L423.8281,712.7656 C423.8281,712.3281 423.8125,712.2031 423.7188,712.0469 C423.5625,711.7813 423.2813,711.6406 422.9844,711.6406 C422.6875,711.6406 422.4844,711.7344 422.2656,712.0469 L422.0938,711.9688 Z " fill="#000000"/><text fill="#000000" font-family="sans-serif" font-size="14" lengthAdjust="spacing" textLength="130" x="440.25" y="721.1436">GameCommander</text><line style="stroke:#181818;stroke-width:0.5;" x1="244.5" x2="733.5" y1="732.2969" y2="732.2969"/><line style="stroke:#181818;stroke-width:0.5;" x1="244.5" x2="733.5" y1="740.2969" y2="740.2969"/><text fill="#000000" font-family="sans-serif" font-size="14" lengthAdjust="spacing" textLength="127" x="249.5" y="757.292">abstract control()</text><text fill="#000000" font-family="sans-serif" font-size="14" lengthAdjust="spacing" textLength="4" x="249.5" y="773.5889">&#160;</text><text fill="#000000" font-family="sans-serif" font-size="14" lengthAdjust="spacing" textLength="179" x="249.5" y="789.8857">display(GameMessenger)</text><text fill="#000000" font-family="sans-serif" font-size="14" lengthAdjust="spacing" textLength="93" x="249.5" y="806.1826">displayCard()</text><text fill="#000000" font-family="sans-serif" font-size="14" lengthAdjust="spacing" textLength="62" x="249.5" y="822.4795">refresh()</text><text fill="#000000" font-family="sans-serif" font-size="14" lengthAdjust="spacing" textLength="212" x="249.5" y="838.7764">sendMessageToDependents()</text><text fill="#000000" font-family="sans-serif" font-size="14" lengthAdjust="spacing" textLength="4" x="249.5" y="855.0732">&#160;</text><text fill="#000000" font-family="sans-serif" font-size="14" lengthAdjust="spacing" textLength="420" x="249.5" y="871.3701">commandHandleEvent(GameMessenger.broadcastEvent())</text><text fill="#000000" font-family="sans-serif" font-size="14" lengthAdjust="spacing" textLength="479" x="249.5" y="887.667">commandHandleCardSelection(GameMessenger.broadcastEvent())</text><text fill="#000000" font-family="sans-serif" font-size="14" lengthAdjust="spacing" textLength="433" x="249.5" y="903.9639">commandSetCardStatus(GameMessenger.broadcastEvent())</text><text fill="#000000" font-family="sans-serif" font-size="14" lengthAdjust="spacing" textLength="408" x="249.5" y="920.2607">commandGameStart(GameMessenger.broadcastEvent())</text><text fill="#000000" font-family="sans-serif" font-size="14" lengthAdjust="spacing" textLength="274" x="249.5" y="936.5576">commandCardsToDisplayResult(cards)</text><text fill="#000000" font-family="sans-serif" font-size="14" lengthAdjust="spacing" textLength="311" x="249.5" y="952.8545">commandMessengerToDisplayResult(cards)</text></g><!--class GameMessenger--><g id="elem_GameMessenger"><rect codeLine="79" fill="#F1F1F1" height="227.2656" id="GameMessenger" rx="3.5" ry="3.5" style="stroke:#181818;stroke-width:0.5;" width="355" x="769.5" y="716.7969"/><ellipse cx="883.25" cy="732.7969" fill="#ADD1B2" rx="11" ry="11" style="stroke:#181818;stroke-width:1.0;"/><path d="M885.5938,728.4688 C884.6563,728.0313 884.0625,727.8906 883.1875,727.8906 C880.5625,727.8906 878.5625,729.9688 878.5625,732.6875 L878.5625,733.8125 C878.5625,736.3906 880.6719,738.2813 883.5625,738.2813 C884.7813,738.2813 885.9375,737.9844 886.6875,737.4375 C887.2656,737.0313 887.5938,736.5781 887.5938,736.1875 C887.5938,735.7344 887.2031,735.3438 886.7344,735.3438 C886.5156,735.3438 886.3125,735.4219 886.125,735.6094 C885.6719,736.0938 885.6719,736.0938 885.4844,736.1875 C885.0625,736.4531 884.375,736.5781 883.6094,736.5781 C881.5625,736.5781 880.2656,735.4844 880.2656,733.7813 L880.2656,732.6875 C880.2656,730.9063 881.5156,729.5938 883.25,729.5938 C883.8281,729.5938 884.4375,729.75 884.9063,730 C885.3906,730.2813 885.5625,730.5 885.6563,730.9063 C885.7188,731.3125 885.75,731.4375 885.8906,731.5625 C886.0313,731.7031 886.2656,731.8125 886.4844,731.8125 C886.75,731.8125 887.0156,731.6719 887.1875,731.4531 C887.2969,731.2969 887.3281,731.1094 887.3281,730.6875 L887.3281,729.2656 C887.3281,728.8281 887.3125,728.7031 887.2188,728.5469 C887.0625,728.2813 886.7813,728.1406 886.4844,728.1406 C886.1875,728.1406 885.9844,728.2344 885.7656,728.5469 L885.5938,728.4688 Z " fill="#000000"/><text fill="#000000" font-family="sans-serif" font-size="14" lengthAdjust="spacing" textLength="119" x="903.75" y="737.6436">GameMessenger</text><line style="stroke:#181818;stroke-width:0.5;" x1="770.5" x2="1123.5" y1="748.7969" y2="748.7969"/><text fill="#000000" font-family="sans-serif" font-size="14" lengthAdjust="spacing" textLength="172" x="775.5" y="765.792">protected self_instance</text><text fill="#000000" font-family="sans-serif" font-size="14" lengthAdjust="spacing" textLength="237" x="775.5" y="782.0889">private int user_selected_card_id</text><text fill="#000000" font-family="sans-serif" font-size="14" lengthAdjust="spacing" textLength="4" x="775.5" y="798.3857">&#160;</text><text fill="#000000" font-family="sans-serif" font-size="14" lengthAdjust="spacing" textLength="200" x="775.5" y="814.6826">CONST STATUS_1_MESSAGE</text><text fill="#000000" font-family="sans-serif" font-size="14" lengthAdjust="spacing" textLength="199" x="775.5" y="830.9795">CONST STATUS_2_MESSAGE</text><text fill="#000000" font-family="sans-serif" font-size="14" lengthAdjust="spacing" textLength="200" x="775.5" y="847.2764">CONST STATUS_3_MESSAGE</text><text fill="#000000" font-family="sans-serif" font-size="14" lengthAdjust="spacing" textLength="241" x="775.5" y="863.5732">CONST STATUS_ERROR_MESSAGE</text><text fill="#000000" font-family="sans-serif" font-size="14" lengthAdjust="spacing" textLength="226" x="775.5" y="879.8701">CONST STATUS_WON_MESSAGE</text><text fill="#000000" font-family="sans-serif" font-size="14" lengthAdjust="spacing" textLength="228" x="775.5" y="896.167">CONST STATUS_LOST_MESSAGE</text><line style="stroke:#181818;stroke-width:0.5;" x1="770.5" x2="1123.5" y1="903.4688" y2="903.4688"/><text fill="#000000" font-family="sans-serif" font-size="14" lengthAdjust="spacing" textLength="124" x="775.5" y="920.4639">broadcastEvent()</text><text fill="#000000" font-family="sans-serif" font-size="14" lengthAdjust="spacing" textLength="343" x="775.5" y="936.7607">displayMessageToUser() //WINNER OR LOOSER!!!</text></g><!--reverse link UserInterface to GameStart--><g id="link_UserInterface_GameStart"><path codeLine="12" d="M325,407.7559 C325,442.9229 325,476.7999 325,502.6979 " fill="none" id="UserInterface-backto-GameStart" style="stroke:#454645;stroke-width:1.0;"/><polygon fill="#454645" points="325,402.5579,321,411.5579,325,407.5579,329,411.5579,325,402.5579" style="stroke:#454645;stroke-width:1.0;"/></g><!--reverse link UserInterface to GameComponent--><g id="link_UserInterface_GameComponent"><path codeLine="13" d="M555.035,415.1149 C574.625,431.3649 593.758,447.2359 611.622,462.0539 " fill="none" id="UserInterface-backto-GameComponent" style="stroke:#454645;stroke-width:1.0;"/><polygon fill="none" points="550.535,420.4769,539.611,402.3209,559.474,409.7019,550.535,420.4769" style="stroke:#454645;stroke-width:1.0;"/></g><!--reverse link Card to GameComponent--><g id="link_Card_GameComponent"><path codeLine="41" d="M886.575,383.7659 C859.214,410.7949 831.722,437.9529 807.111,462.2659 " fill="none" id="Card-backto-GameComponent" style="stroke:#454645;stroke-width:1.0;"/><polygon fill="none" points="881.707,378.7349,900.855,369.6589,891.546,388.6939,881.707,378.7349" style="stroke:#454645;stroke-width:1.0;"/></g><!--reverse link Card to JButton--><g id="link_Card_JButton"><path codeLine="42" d="M1048,389.9219 C1048,443.9139 1048,497.5219 1048,527.0419 " fill="none" id="Card-backto-JButton" style="stroke:#454645;stroke-width:1.0;"/><polygon fill="none" points="1041,389.6589,1048,369.6589,1055,389.6589,1041,389.6589" style="stroke:#454645;stroke-width:1.0;"/></g><!--reverse link GameComponent to GameCommander--><g id="link_GameComponent_GameCommander"><path codeLine="95" d="M641.882,644.3699 C627.057,662.3029 611.26,681.4099 595.659,700.2809 " fill="none" id="GameComponent-backto-GameCommander" style="stroke:#454645;stroke-width:1.0;stroke-dasharray:7.0,7.0;"/><polygon fill="#454645" points="645.228,640.3219,636.4102,644.709,642.0419,644.1752,642.5756,649.8069,645.228,640.3219" style="stroke:#454645;stroke-width:1.0;"/></g><!--reverse link GameComponent to GameMessenger--><g id="link_GameComponent_GameMessenger"><path codeLine="96" d="M794.076,644.3189 C813.214,667.4689 833.972,692.5769 853.841,716.6109 " fill="none" id="GameComponent-backto-GameMessenger" style="stroke:#454645;stroke-width:1.0;stroke-dasharray:7.0,7.0;"/><polygon fill="#454645" points="790.772,640.3219,793.4244,649.8069,793.9581,644.1752,799.5898,644.709,790.772,640.3219" style="stroke:#454645;stroke-width:1.0;"/></g><!--SRC=[ZLN9Rjim4BthA-YS921HqFPM14Mpk6c2n0ea1paKXK1BOuMeH1eavI1Dy-yTKhIssguDsx3uPeQpl3UUw6UeWApPGbAkFKypNGAvBAbIv8hHGjBAypBxU4qhI3ILchnvX5IKSPzAAbz__2HK5dK5NAi04NmppZIZ9ViDQ2Bfq2JmtZqkD90IblepEJAH25D4r9AWWNmbAy6uFlAyHmNoXckGIve1EJivwN8OOtySU2cgbU0OnYKzD3E9hoHRKxpzzXlM1cHflll73vH3IJ8gytHbVlOnUq2mZBh535mlIfQHSrFf7LFwx1ATlzWGgh5GeA-OMfNqrG-QHtlvvi5UwRlU5Q1ZodDH9L12fY4twHSWDpZQcq9zLss5jY33hFdLziSFZeb-PYhS7Sx5ax2Ke9xzrZNifXUwAVyxGkjgBzYQX-c0yWypcmlNcnXKNMhVcjlc1NkTxq4fu5ZAlW3lddsPYxQHf3k_lQYr5jpHnfw_TRDrg3tl4M91ir-553NFKrRH0j8SbXHJs6VoWfViWKkXz81M5qAKG8r2qXV6ESW6DPduA9E6gIntLBfeuzsOSFveo8cMZ1Uam2Qa5VOFJPp5Lx46ALbkj23u0rehVtVll-EdXEaQUzXPjGC95rBGFADAzommnQ2PHxTEshYsrtIXjAGPbYHm3OXM4RcJpk2Ee0DiAu9UbKql6ePWXSWFME6ZeUucvfOwzfPWAJzmChSsccA27-wSWBQUckfQ7UxM2VjWbwtYQdNrFn7rzTCDh3LtgnJNkDafsErocJAkDELPVviQWjQuWbFbja_gwEf87CsIEKdcv_F79FsGta-JvFnwEWO-xW8-xGAcSHp5ky2dQBOBkekIUG_3zxY_7UjQSfc_63yWfwTFDxFPD2PHJEwYA9d6ayd4zc-mSiXP60wvlmDlM-srkXWQcWaCPs9btJ2hoNxWCFp7E2OZEVM4DjRII8zRj8D4-Gi0]--></g></svg>